<?xml version="1.0" encoding="utf-8"?>
<!-- Generator: Adobe Illustrator 26.0.3, SVG Export Plug-In . SVG Version: 6.00 Build 0)  -->
<svg version="1.1" id="Logov" xmlns="http://www.w3.org/2000/svg" xmlns:xlink="http://www.w3.org/1999/xlink" x="0px" y="0px"
	 viewBox="0 0 539 287" style="enable-background:new 0 0 539 287;" xml:space="preserve">
<style type="text/css">
	.st0{clip-path:url(#SVGID_00000170272537318498085950000006378881086081659796_);}
	.st1{fill-rule:evenodd;clip-rule:evenodd;fill:#CC1F26;}
	.st2{fill-rule:evenodd;clip-rule:evenodd;fill:#FEFEFE;}
	.st3{fill-rule:evenodd;clip-rule:evenodd;fill:#002768;}
	.st4{fill:#FFFFFF;}
	.st5{fill:#87020C;}
</style>
<g>
	<g>
		<defs>
			<rect id="SVGID_1_" x="181" y="16.2" width="180" height="178.5"/>
		</defs>
		<clipPath id="SVGID_00000078015636725504756690000013637952613269603972_">
			<use xlink:href="#SVGID_1_"  style="overflow:visible;"/>
		</clipPath>
		<g style="clip-path:url(#SVGID_00000078015636725504756690000013637952613269603972_);">
			<rect x="150.4" y="233.2" class="st1" width="411.4" height="18.4"/>
			<rect x="150.4" y="214.7" class="st2" width="411.4" height="18.5"/>
			<rect x="150.4" y="196.3" class="st1" width="411.4" height="18.4"/>
			<rect x="150.4" y="177.8" class="st2" width="411.4" height="18.5"/>
			<rect x="150.4" y="159.3" class="st1" width="411.4" height="18.4"/>
			<rect x="150.4" y="140.9" class="st2" width="411.4" height="18.4"/>
			<rect x="150.4" y="122.5" class="st1" width="411.4" height="18.4"/>
			<rect x="150.4" y="104" class="st2" width="411.4" height="18.4"/>
			<rect x="150.4" y="85.5" class="st1" width="411.4" height="18.4"/>
			<rect x="150.4" y="67.1" class="st2" width="411.4" height="18.4"/>
			<rect x="150.4" y="48.6" class="st1" width="411.4" height="18.5"/>
			<rect x="150.4" y="30.1" class="st2" width="411.4" height="18.4"/>
			<rect x="150.4" y="11.7" class="st1" width="411.4" height="18.4"/>
			<rect x="150.4" y="11.7" class="st3" width="187.8" height="129.2"/>
			<polygon class="st2" points="167.3,25.9 168.9,30.8 174,30.8 169.9,33.8 171.5,38.7 167.3,35.7 163.2,38.7 164.7,33.8 
				160.6,30.8 165.7,30.8 			"/>
			<polygon class="st2" points="167.3,47.5 168.9,52.4 174,52.4 169.9,55.4 171.5,60.3 167.3,57.2 163.2,60.3 164.7,55.4 
				160.6,52.4 165.7,52.4 			"/>
			<polygon class="st2" points="167.3,69.1 168.9,73.9 174,73.9 169.9,76.9 171.5,81.8 167.3,78.8 163.2,81.8 164.7,76.9 
				160.6,73.9 165.7,73.9 			"/>
			<polygon class="st2" points="167.3,90.6 168.9,95.5 174,95.5 169.9,98.5 171.5,103.4 167.3,100.4 163.2,103.4 164.7,98.5 
				160.6,95.5 165.7,95.5 			"/>
			<polygon class="st2" points="167.3,112.2 168.9,117.1 174,117.1 169.9,120.1 171.5,125 167.3,121.9 163.2,125 164.7,120.1 
				160.6,117.1 165.7,117.1 			"/>
			<polygon class="st2" points="182.4,37.3 183.9,42.1 189.1,42.1 184.9,45.1 186.5,50.1 182.4,47.1 178.2,50.1 179.8,45.1 
				175.6,42.1 180.8,42.1 			"/>
			<polygon class="st2" points="182.4,58.8 183.9,63.7 189.1,63.7 184.9,66.7 186.5,71.6 182.4,68.6 178.2,71.6 179.8,66.7 
				175.6,63.7 180.8,63.7 			"/>
			<polygon class="st2" points="182.4,80.4 183.9,85.3 189.1,85.3 184.9,88.3 186.5,93.2 182.4,90.2 178.2,93.2 179.8,88.3 
				175.6,85.3 180.8,85.3 			"/>
			<polygon class="st2" points="182.4,102 183.9,106.8 189.1,106.8 184.9,109.9 186.5,114.8 182.4,111.8 178.2,114.8 179.8,109.9 
				175.6,106.8 180.8,106.8 			"/>
			<polygon class="st2" points="197.5,25.9 199.1,30.8 204.3,30.8 200.1,33.8 201.7,38.7 197.5,35.7 193.4,38.7 195,33.8 
				190.8,30.8 195.9,30.8 			"/>
			<polygon class="st2" points="197.5,47.5 199.1,52.4 204.3,52.4 200.1,55.4 201.7,60.3 197.5,57.2 193.4,60.3 195,55.4 
				190.8,52.4 195.9,52.4 			"/>
			<polygon class="st2" points="197.5,69.1 199.1,73.9 204.3,73.9 200.1,76.9 201.7,81.8 197.5,78.8 193.4,81.8 195,76.9 
				190.8,73.9 195.9,73.9 			"/>
			<polygon class="st2" points="197.5,90.6 199.1,95.5 204.3,95.5 200.1,98.5 201.7,103.4 197.5,100.4 193.4,103.4 195,98.5 
				190.8,95.5 195.9,95.5 			"/>
			<polygon class="st2" points="197.5,112.2 199.1,117.1 204.3,117.1 200.1,120.1 201.7,125 197.5,121.9 193.4,125 195,120.1 
				190.8,117.1 195.9,117.1 			"/>
			<polygon class="st2" points="212.6,37.3 214.2,42.1 219.3,42.1 215.2,45.1 216.7,50.1 212.6,47.1 208.4,50.1 210,45.1 
				205.9,42.1 211,42.1 			"/>
			<polygon class="st2" points="212.6,58.8 214.2,63.7 219.3,63.7 215.2,66.7 216.7,71.6 212.6,68.6 208.4,71.6 210,66.7 
				205.9,63.7 211,63.7 			"/>
			<polygon class="st2" points="212.6,80.4 214.2,85.3 219.3,85.3 215.2,88.3 216.7,93.2 212.6,90.2 208.4,93.2 210,88.3 
				205.9,85.3 211,85.3 			"/>
			<polygon class="st2" points="212.6,102 214.2,106.8 219.3,106.8 215.2,109.9 216.7,114.8 212.6,111.8 208.4,114.8 210,109.9 
				205.9,106.8 211,106.8 			"/>
			<polygon class="st2" points="227.8,25.9 229.4,30.8 234.5,30.8 230.4,33.8 232,38.7 227.8,35.7 223.6,38.7 225.2,33.8 
				221.1,30.8 226.2,30.8 			"/>
			<polygon class="st2" points="227.8,47.5 229.4,52.4 234.5,52.4 230.4,55.4 232,60.3 227.8,57.2 223.6,60.3 225.2,55.4 
				221.1,52.4 226.2,52.4 			"/>
			<polygon class="st2" points="227.8,69.1 229.4,73.9 234.5,73.9 230.4,76.9 232,81.8 227.8,78.8 223.6,81.8 225.2,76.9 
				221.1,73.9 226.2,73.9 			"/>
			<polygon class="st2" points="227.8,90.6 229.4,95.5 234.5,95.5 230.4,98.5 232,103.4 227.8,100.4 223.6,103.4 225.2,98.5 
				221.1,95.5 226.2,95.5 			"/>
			<polygon class="st2" points="227.8,112.2 229.4,117.1 234.5,117.1 230.4,120.1 232,125 227.8,121.9 223.6,125 225.2,120.1 
				221.1,117.1 226.2,117.1 			"/>
			<polygon class="st2" points="242.8,37.3 244.4,42.1 249.5,42.1 245.4,45.1 246.9,50.1 242.8,47.1 238.7,50.1 240.2,45.1 
				236.1,42.1 241.2,42.1 			"/>
			<polygon class="st2" points="242.8,58.8 244.4,63.7 249.5,63.7 245.4,66.7 246.9,71.6 242.8,68.6 238.7,71.6 240.2,66.7 
				236.1,63.7 241.2,63.7 			"/>
			<polygon class="st2" points="242.8,80.4 244.4,85.3 249.5,85.3 245.4,88.3 246.9,93.2 242.8,90.2 238.7,93.2 240.2,88.3 
				236.1,85.3 241.2,85.3 			"/>
			<polygon class="st2" points="242.8,102 244.4,106.8 249.5,106.8 245.4,109.9 246.9,114.8 242.8,111.8 238.7,114.8 240.2,109.9 
				236.1,106.8 241.2,106.8 			"/>
			<polygon class="st2" points="258,25.9 259.6,30.8 264.7,30.8 260.6,33.8 262.2,38.7 258,35.7 253.9,38.7 255.5,33.8 251.3,30.8 
				256.5,30.8 			"/>
			<polygon class="st2" points="258,47.5 259.6,52.4 264.7,52.4 260.6,55.4 262.2,60.3 258,57.2 253.9,60.3 255.5,55.4 251.3,52.4 
				256.5,52.4 			"/>
			<polygon class="st2" points="258,69.1 259.6,73.9 264.7,73.9 260.6,76.9 262.2,81.8 258,78.8 253.9,81.8 255.5,76.9 251.3,73.9 
				256.5,73.9 			"/>
			<polygon class="st2" points="258,90.6 259.6,95.5 264.7,95.5 260.6,98.5 262.2,103.4 258,100.4 253.9,103.4 255.5,98.5 
				251.3,95.5 256.5,95.5 			"/>
			<polygon class="st2" points="258,112.2 259.6,117.1 264.7,117.1 260.6,120.1 262.2,125 258,121.9 253.9,125 255.5,120.1 
				251.3,117.1 256.5,117.1 			"/>
			<polygon class="st2" points="273,37.3 274.6,42.1 279.8,42.1 275.6,45.1 277.2,50.1 273,47.1 268.9,50.1 270.5,45.1 266.3,42.1 
				271.4,42.1 			"/>
			<polygon class="st2" points="273,58.8 274.6,63.7 279.8,63.7 275.6,66.7 277.2,71.6 273,68.6 268.9,71.6 270.5,66.7 266.3,63.7 
				271.4,63.7 			"/>
			<polygon class="st2" points="273,80.4 274.6,85.3 279.8,85.3 275.6,88.3 277.2,93.2 273,90.2 268.9,93.2 270.5,88.3 266.3,85.3 
				271.4,85.3 			"/>
			<polygon class="st2" points="273,102 274.6,106.8 279.8,106.8 275.6,109.9 277.2,114.8 273,111.8 268.9,114.8 270.5,109.9 
				266.3,106.8 271.4,106.8 			"/>
			<polygon class="st2" points="288.3,25.9 289.8,30.8 295,30.8 290.8,33.8 292.4,38.7 288.3,35.7 284.1,38.7 285.7,33.8 
				281.5,30.8 286.7,30.8 			"/>
			<polygon class="st2" points="288.3,47.5 289.8,52.4 295,52.4 290.8,55.4 292.4,60.3 288.3,57.2 284.1,60.3 285.7,55.4 
				281.5,52.4 286.7,52.4 			"/>
			<polygon class="st2" points="288.3,69.1 289.8,73.9 295,73.9 290.8,76.9 292.4,81.8 288.3,78.8 284.1,81.8 285.7,76.9 
				281.5,73.9 286.7,73.9 			"/>
			<polygon class="st2" points="288.3,90.6 289.8,95.5 295,95.5 290.8,98.5 292.4,103.4 288.3,100.4 284.1,103.4 285.7,98.5 
				281.5,95.5 286.7,95.5 			"/>
			<polygon class="st2" points="288.3,112.2 289.8,117.1 295,117.1 290.8,120.1 292.4,125 288.3,121.9 284.1,125 285.7,120.1 
				281.5,117.1 286.7,117.1 			"/>
			<polygon class="st2" points="303.3,37.3 304.9,42.1 310,42.1 305.9,45.1 307.5,50.1 303.3,47.1 299.1,50.1 300.7,45.1 
				296.6,42.1 301.7,42.1 			"/>
			<polygon class="st2" points="303.3,58.8 304.9,63.7 310,63.7 305.9,66.7 307.5,71.6 303.3,68.6 299.1,71.6 300.7,66.7 
				296.6,63.7 301.7,63.7 			"/>
			<polygon class="st2" points="303.3,80.4 304.9,85.3 310,85.3 305.9,88.3 307.5,93.2 303.3,90.2 299.1,93.2 300.7,88.3 
				296.6,85.3 301.7,85.3 			"/>
			<polygon class="st2" points="303.3,102 304.9,106.8 310,106.8 305.9,109.9 307.5,114.8 303.3,111.8 299.1,114.8 300.7,109.9 
				296.6,106.8 301.7,106.8 			"/>
			<polygon class="st2" points="318.5,25.9 320.1,30.8 325.2,30.8 321.1,33.8 322.7,38.7 318.5,35.7 314.3,38.7 315.9,33.8 
				311.8,30.8 316.9,30.8 			"/>
			<polygon class="st2" points="318.5,47.5 320.1,52.4 325.2,52.4 321.1,55.4 322.7,60.3 318.5,57.2 314.3,60.3 315.9,55.4 
				311.8,52.4 316.9,52.4 			"/>
			<polygon class="st2" points="318.5,69.1 320.1,73.9 325.2,73.9 321.1,76.9 322.7,81.8 318.5,78.8 314.3,81.8 315.9,76.9 
				311.8,73.9 316.9,73.9 			"/>
			<polygon class="st2" points="318.5,90.6 320.1,95.5 325.2,95.5 321.1,98.5 322.7,103.4 318.5,100.4 314.3,103.4 315.9,98.5 
				311.8,95.5 316.9,95.5 			"/>
			<polygon class="st2" points="318.5,112.2 320.1,117.1 325.2,117.1 321.1,120.1 322.7,125 318.5,121.9 314.3,125 315.9,120.1 
				311.8,117.1 316.9,117.1 			"/>
		</g>
	</g>
	<g>
		<path class="st4" d="M255.6,10c4.8-3.9,9.2-5,15.4-5.3c6.5-0.3,10.4,1.1,15.5,4.9c1.7,1.3,3.8,2.7,5.3,4.3
			c17.1,17.1,34.3,34.6,51.4,51.7c4.1,4.1,6.4,7.9,7.8,13.6c0.4,1.8,0.4,5.6,0.4,7.4c0.1,5.5-0.3,9.2-0.5,14.7
			c-0.1,5.6-1.5,8.5-4.9,12.9c-1.4,1.8-2.3,2.9-4,4.6c-6.1,6.1-9.3,8.7-15.5,14.8c-0.1-0.6-1,2-1,1.4c0-3.4,0.1-4.5,0.3-7.9
			c0.1-1.7-1.2-3.8-2.4-5c-29.8-29.8-58.7-58.9-88.5-88.7c-0.5-0.5,0,0-0.5-0.5l-0.5-0.5c6.4-6.4,11.7-12.4,18.1-18.8
			C253.1,12.2,254.5,11.1,255.6,10z M324.7,98.4c0.4-0.4,1.9-0.4,2.2-0.7c5.5-5.5-2.7,2.7,2.8-2.8c1.2-1.2,1.6-2.5,2.5-4
			c2.1-3.8,3.9-2.8,2.4-6.6c-1.4-4.6-4.9-7.2-8.3-10.6c-16.7-16.7-26.2-27.6-42.9-44.2c-1.6-1.6-3.1-3.3-4.9-4.7
			c-5.2-3.9-4.7-4.3-7.4-4c-3.2,0.4-4.5-0.1-6.8,2.2c-5.8,5.6,1.2-1.2-4.5,4.5c0,0-2.6,2.3-2.6,2.3c-0.5,0.5,0.3,2.6,0.8,3.1
			L324.7,98.4z"/>
		<path d="M254,9.5c4.8-3.9,10.1-6.3,16.3-6.6c6.5-0.3,12.2,1.8,17.3,5.6c1.7,1.3,3.3,2.8,4.9,4.3c17.1,17.1,34.2,34.2,51.2,51.2
			c4.1,4.1,7.2,8.7,8.6,14.4c0.4,1.8,0.7,3.6,0.7,5.4c0.1,5.5,0.1,11,0,16.5c-0.1,5.6-2.4,10.6-5.8,15c-1.4,1.8-3.1,3.6-4.7,5.2
			c-5.2,5.2-10.6,10.4-15.8,15.6c-0.9,0.9-2.3,2.4-2.8,2.4c0,0-0.1-0.5-0.1-0.7c-0.1-0.3-0.3-0.5-0.3-0.9c0-3.4,0.2-6.3,0.2-10.1
			c0.1-1.7-0.3-2.7-1.5-3.9c-29.8-29.8-59.6-59.6-89.4-89.4c-0.5-0.5-1-1-1.5-1.4l0,0c6.4-6.4,12.8-12.8,19.2-19.1
			C251.7,11.9,252.9,10.7,254,9.5z M323.8,119.6c0.4-0.4,0.8-0.7,1.1-1c5.5-5.5,11-10.9,16.4-16.4c1.2-1.2,2.4-2.5,3.4-3.9
			c4.4-6.2,5.9-13,3.7-20.4c-1.4-4.6-4.2-8.4-7.5-11.7c-16.7-16.7-33.3-33.4-50-50c-1.6-1.6-3.3-3.2-5.1-4.6
			c-5.2-3.9-10.9-5.7-17.4-4.7c-5.5,0.8-10.1,3.5-14.1,7.4c-5.7,5.6-11.4,11.3-17.1,17c-0.3,0.3-0.5,0.5-0.9,0.9
			C265.5,61.3,294.6,90.4,323.8,119.6z"/>
		<path class="st4" d="M281.1,104.1c-4.1-4-8.7-7.1-14.4-8.3c-1.9-0.4-3.8-0.6-5.8-0.9c0-0.1-0.1-0.3-0.1-0.5
			c-0.3-6.9-2.8-12.8-7.5-17.8c-4.9-5.2-10-10.3-15.1-15.3c-1.4-1.4-3-2.7-4.6-3.8c-5.9-4.1-12.4-6-19.5-4.7
			c-9.8,1.8-15.2,8.5-20.2,16.8c-2.9,4.8-4.4,9.5-4,15c0.1,0.7,1.1,1.3,1.1,1.7c1,5.6,3.1,9,6.9,13c3.7,3.9,7,7,10.7,10.8
			c4-4,8.9-8.3,12.3-11.7c-2.8-2.9-9.6-10.9-12.4-13.8c-5-5,5.2-13,7.8-13c2-0.4,4.8,1,6.2,2c0.7,0.5,2.1,1.3,2.7,1.9
			c5.1,5.1,9.5,9.9,14.5,15c0.7,0.7,1.8,2.4,2.4,3.3c1.9,2.9,1.3,7-1.3,9.7c-2.2,2.3-4.3,3.3-5.8,5.6l-1.3,0.4
			c3,4.2,9.4,7.5,13.7,11.7c0.7,0.7,0.9,2.3,0.9,3.2c0,3.7,0.2,4.4,0.2,8.2c0,0.6-0.3,1.4-0.2,2c2.1-2,2.4-2.5,4.5-4.5
			c1.3-1.3,2.5-1.5,4.3-1.8c0.2-0.7-0.1-1.4-0.1-2.1c0.1-3.5,0-6.7,0-10.2c0-0.6,0-1.7,0-2.5c1.9-0.3,5.1,0.1,6.5,1.1
			c0.4,0.3,1.7,1.7,2.1,2.1c5.6,5.5,10.7,10.6,16.2,16.1c0.7,0.7,1.8,2,2.3,2.8c1.4,2.5,0.2,6.5-1.7,8.6c-1,1.2-3,2.5-4.7,2.7
			c-2.9,1-6.3,0.5-8.4-1.6c-3.6-3.6-6.6-6.8-10.2-10.4c-0.4-0.4-0.8-0.8-1.3-1.3c-0.4,0.4-11.7,13.1-11.9,13.3
			c2.6,2.5,4,4.6,6.5,7.1c3.1,3,6,5.7,9.8,8c5,3,8.8,4,14.7,3.4c0.2,0,2.6-0.1,2.8-0.1c0.4,1.2,0.5,10.3,0.2,13.6
			c0.3,0.1,3.7-0.1,6.4-1.6c3.6-2.1,7.5-4.5,10.1-7.7c4.1-4.8,7.1-10,7.3-16.4c0.1-4.8,0-9.6,0.1-14.5c0.1-7.4-2.5-13.9-7.5-19.2
			C291.3,114.3,286.2,109.2,281.1,104.1z"/>
		<path d="M281.1,104.1c-4.1-4-8.7-7.1-14.4-8.3c-1.9-0.4-3.8-0.6-5.8-0.9c0-0.1-0.1-0.3-0.1-0.5c-0.3-6.9-2.8-12.8-7.5-17.8
			c-4.9-5.2-10-10.3-15.1-15.3c-1.4-1.4-3-2.7-4.6-3.8c-5.9-4.1-12.4-6-19.5-4.7c-9.8,1.8-16.6,7.9-21.6,16.2
			c-2.9,4.8-3.7,10.1-3.3,15.6c0.1,0.7,0.1,1,0.2,1.4c1,5.6,3.7,10.1,7.6,14.1c3.7,3.9,7.4,7.7,11.1,11.4c0.9,0.9,1.3,1.8,1.2,3
			c-0.1,4.1-0.5,12.3-0.1,12.3c0.4,0,1-0.5,1.3-0.9c3.7-3.6,7.6-7.5,11.6-11.6c1.8-1.8,1.7-2.1,1.7-3.8c0-5.6,0-5.9,0-12.1
			c0-0.5,0-0.9-0.5-1.3c-4.3-4.3-10.4-10.4-9.1-9.1c0.5-0.5,1.2-1.2,2.7-1.2c-0.1-2.1-0.1-2.8-0.1-4.3c0-3.3,0-6.5-0.1-9.8
			c2-0.4,3.5,0.3,4.9,1.3c0.7,0.5,1.3,1.1,1.9,1.7c5.1,5.1,10.1,10.1,15.2,15.2c0.7,0.7,1.5,1.5,2,2.3c1.9,2.9,2,6.4-0.6,9.1
			c-2.4,2.4-4.6,4.2-7.2,6.8c0,0,7.8,8.4,12.9,13.2c0.7,0.6,0.7,0.7,0.7,1.7c0,3.7-0.2,7.5-0.2,11.2c0,0.7,0,1.5,0,1.5
			c0.1,0,0.5,0.3,0.5,0.3c0.5-0.3,0.9-0.8,1.3-1.2c1.7-1.7,2.8-2.8,4.3-4.3c1.3-1.3,3.5-2.8,5.3-3.2c0.3-0.6,0.5-1.1,0.5-2.9
			c0.1-3.5,0-6.2,0-9.7c0-0.6,0-1.2,0.1-2c1.9-0.3,3.4,0.3,4.7,1.3c0.4,0.3,0.8,0.7,1.2,1c5.6,5.5,11.1,11.1,16.6,16.7
			c0.7,0.7,1.3,1.5,1.8,2.3c1.4,2.5,1,5.5-0.9,7.7c-1,1.2-1.9,2.1-3.8,2.7c-2.9,1-5.4,0.5-7.6-1.6c-3.6-3.6-7.2-7.2-10.9-10.8
			c-0.4-0.4-0.9-0.9-1.4-1.4c-2.6,2.6-13.4,13.5-14.7,14.7c1.4,1.4,5.1,5.1,7.7,7.7c3.1,3,6.2,6.1,9.9,8.4c5,3,10.4,4.3,16.3,3.7
			c0.2,0,0.7,0,0.7,0c0.1,5.4-0.7,11-1,14.3c0.1,0,0.4,0,1,0c1.9-0.3,5.8-1.3,8.7-2.8c3.8-2.1,7.5-5,10.2-8.2
			c4.1-4.8,6.7-10.3,6.8-16.7c0.1-4.8,0-9.6,0.1-14.5c0.1-7.4-2.5-13.9-7.5-19.2C291.3,114.3,286.2,109.2,281.1,104.1z M293.5,121.7
			c5.9,6.5,8,14.1,5.3,22.6c-2,6.3-6.2,11.1-11.6,14.7c-8.8,5.9-19.1,5.2-26.9-0.9c-2.3-1.8-4.4-4-6.6-6c-1.8-1.7-3.1-3.1-5.3-5.3
			c3.3-3.3,6.4-6.4,9.6-9.6c1.1,1.1,1.1,1.1,1.6,1.6c3.1,2.9,6,6,9.2,8.8c3.8,3.4,9.5,3.2,13.4-0.1c2.5-2.1,4.3-4.6,4.6-8
			c0.3-2.6-0.5-5-2-7.1c-0.8-1.1-1.8-2.1-2.7-3.1c-4.9-4.9-9.7-9.8-14.6-14.6c-1.5-1.5-3.2-2.9-5.3-3.7c-3.8-1.3-6.9-0.9-9.9,1.6
			c-1.8,1.5-3.8,3.8-4.9,4.9c-3-3-5.8-5.8-8.7-8.7c0,0,2.3-2.3,3.6-3.6c1.9-2,3.2-4.1,3.5-6.9c0.3-2.8-0.6-5.3-2.3-7.4
			c-1.1-1.3-2.3-2.6-3.5-3.8c-4.6-4.6-9.2-9.2-13.8-13.7c-1.9-1.9-4-3.5-6.7-4c-4-0.8-7.2,0.7-10,3.4c-4.5,4.5-4.6,10.5-0.6,14.8
			c2.7,3,5.5,5.8,8.3,8.6c0.5,0.5,1.6,1.6,1.6,1.6c-3.2,3.2-6.4,6.4-9.6,9.6c0,0-0.6-0.5-0.9-0.7c-3.1-3.1-6.3-6.1-9.2-9.3
			c-7.7-8.7-8.4-20-1.6-29.4c3.4-4.6,7.5-8.3,13-10.4c7.6-2.9,14.8-1.7,21.4,2.9c1.3,0.9,2.5,2,3.7,3.1c5.3,5.2,10.6,10.3,15.6,15.8
			c4.6,5,6.8,11.1,6,18c-0.1,0.5-0.1,1-0.1,1.6c1.5-0.1,2.9-0.2,4.2-0.2c5,0,9.4,1.6,13.4,4.6c1.3,1,2.6,2.1,3.8,3.2
			C283.5,111.5,288.7,116.4,293.5,121.7z"/>
		<path d="M254.8,31.1c0.2-0.3,0.5-0.6,0.7-0.9c2.3-2.3,4.5-4.6,6.8-6.8c1.8-1.8,3.8-3.1,6.4-3.6c3.3-0.6,6.2,0.5,8.8,2.6
			c0.5,0.4,0.9,0.9,1.4,1.3c17.8,17.8,35.6,35.6,53.5,53.5c1.9,1.9,3.4,4.1,3.8,6.8c0.6,3.3-0.4,6.3-2.7,8.7
			c-2.7,2.9-5.6,5.7-8.6,8.6C301.6,77.8,278.2,54.5,254.8,31.1z M324.7,96.2c0.3-0.1,0.6-0.1,0.8-0.3c1.9-1.9,3.8-3.7,5.6-5.6
			c2.2-2.4,2.4-5.5,0.8-8.3c-0.6-1-1.4-1.9-2.3-2.8c-17.5-17.6-35.1-35.1-52.7-52.7c-0.5-0.5-1-1-1.5-1.4c-1.6-1.2-3.3-2-5.1-1.8
			c-0.1,5-0.2,9.7-0.2,14.5c-0.9,0.3-1.8,0.6-2.9,1c0.6,0.6,1,1,1.4,1.4c18.3,18.3,36.6,36.6,54.9,54.9
			C323.8,95.4,324.2,95.8,324.7,96.2z"/>
		<g>
			<path class="st5" d="M231.3,32.2c0.5,0.5,1,0.9,1.5,1.4c29.8,29.8,59.6,59.6,89.4,89.4c1.2,1.2,1.7,2.4,1.7,4.1c0,4,0,6.8,0,10.1
				c0,0.6,0.1,0.8,0.1,1.4c-0.5,0-2-1.5-4.5-3.9c-9-8.5-29-28.9-40.2-40.1c-15.5-15.5-31-31-46.5-46.5c-1.1-1.1-1.6-2.2-1.5-3.8
				c0.1-3.5,0-7,0-10.5C231.2,33.3,231.3,32.7,231.3,32.2z"/>
			<path class="st5" d="M243.3,146.9c2.6,2.5,5.1,5.1,7.7,7.7c3.1,3,6.2,6.1,9.9,8.4c5,3,10.4,4.3,16.3,3.7c0.2,0,0.5,0,0.7,0
				c0,3.5,0,7.2,0,14.2c-6,1.1-11.4-0.4-16.7-3.3c-3.2-1.7-5.8-4.1-8.3-6.6c-3.7-3.7-5.3-5.3-9.1-9.1c-0.8-0.8-0.7-1.1-0.7-2.3
				c0.1-3.7,0.1-7.4,0.1-11.1C243.2,148,243.3,147.4,243.3,146.9z"/>
			<path class="st5" d="M217,87.1c-0.1-1.4-0.1-2.8-0.1-4.3c0-3.3,0-6.5-0.1-9.8c2-0.4,3.5,0.3,4.9,1.3c0.7,0.5,1.3,1.1,1.9,1.7
				c5.1,5.1,10.1,10.1,15.2,15.2c0.7,0.7,1.6,1.7,2.2,2.5c1.9,2.9,1.8,6.5-1,9.1c-2.1,1.9-2.3,2.2-2.3,2.2c-0.5-0.6-1.2-1.5-1.5-1.8
				c-4.3-4.3-8.6-8.6-12.9-12.9C221.5,88.5,219.5,87.3,217,87.1z"/>
			<path class="st5" d="M257.6,128.7c0.4-0.6,0.5-1.4,0.5-2.1c0.1-3.5,0-7,0-10.5c0-0.6,0-1.2,0.1-2c1.9-0.3,3.4,0.3,4.7,1.3
				c0.4,0.3,0.8,0.7,1.2,1c5.6,5.5,11.1,11.1,16.6,16.7c0.7,0.7,1.3,1.5,1.8,2.3c1.4,2.5,1,5.5-0.9,7.7c-1,1.2-2,2.1-3.8,2.7
				c0.2-0.3,0.2-0.7,0.1-0.9c-0.2-0.3-0.5-0.6-0.8-0.9c-4.3-4.3-8.6-8.6-12.9-12.8c-0.8-0.8-1.7-1.5-2.7-2.1
				C260.4,128.5,259.2,128.5,257.6,128.7z"/>
			<path class="st5" d="M189.2,84.6c0.1,0.4,0.2,0.8,0.3,1.2c1,5.6,3.6,10.3,7.5,14.4c3.7,3.9,7.4,7.7,11.1,11.4
				c0.9,0.9,1.3,1.8,1.2,3c-0.1,4.1-0.1,8.2-0.1,12.3c-0.5-0.2-0.8-0.4-1.5-1.1c-3.8-3.8-7.6-7.6-11.3-11.6
				c-4.6-5-7.3-10.9-7.4-17.8c-0.1-3.6,0.1-7.1,0.1-10.7C189.1,85.4,189.1,84.9,189.2,84.6z"/>
			<path class="st5" d="M233,109.4c4.3,4.2,8.8,8.4,13.1,12.6c0.7,0.7,0.8,1.2,0.8,2.2c0,5.2,0,7.6,0,11.3c0,0.6,0.1,1.9,0,1.9
				c-0.4-0.1-0.9-0.4-1.2-0.7c-4-4-8-7.9-11.9-11.9c-0.5-0.5-0.9-1.1-0.9-1.9C232.8,118.6,232.9,109.7,233,109.4z"/>
			<path class="st5" d="M270.1,37.8c0.1-4.8,0.2-9.5,0.2-14.5c1.8-0.2,3.5,0.6,5.1,1.8c0.5,0.4,1,0.9,1.5,1.4
				c17.6,17.6,35.1,35.1,52.7,52.7c0.8,0.8,1.7,1.8,2.3,2.8c1.6,2.8,1.3,5.9-0.8,8.3c-1.8,2-2.4,2.5-2.4,2.5c-0.7-0.7-1.5-1.5-2-2
				c-16.6-16.6-33.1-33.1-49.7-49.7c-0.4-0.4-0.7-0.8-1.1-1.1C274.1,38.7,272.4,37.5,270.1,37.8z"/>
			<path class="st5" d="M241,93.7c1.9,2.9,1.4,6.7-1.2,9.4c-2.2,2.3-2.2,1.8-2.2,1.8"/>
		</g>
	</g>
</g>
<g>
	<path d="M74.5,240c0-5.4-1.9-6.9-4.9-6.9s-4.9,1.6-4.9,5.9v3.9h-8.9v-3.3c0-9.6,4.8-15.1,14.1-15.1s14.1,5.5,14.1,15.1v1.5
		c0,6.4-2.1,10.5-6.6,12.4c4.7,2.1,6.6,6.5,6.6,12.6v4.7c0,9.6-4.8,15.1-14.1,15.1s-14.1-5.5-14.1-15.1v-5h8.9v5.6
		c0,4.3,1.9,5.9,4.9,5.9s4.9-1.5,4.9-6.8V266c0-5.6-1.9-7.6-6.2-7.6h-3.2v-8.6h3.7c3.5,0,5.7-1.5,5.7-6.3V240z"/>
	<path d="M90.3,225.3h14.9c9.4,0,14.1,5.2,14.1,14.8v30.4c0,9.6-4.6,14.8-14.1,14.8H90.3V225.3z M99.7,233.9v42.9h5.3
		c3,0,4.8-1.5,4.8-5.8v-31.2c0-4.3-1.8-5.8-4.8-5.8H99.7z"/>
	<path d="M166.6,240.1v7.8c0,9.6-4.6,14.8-14.1,14.8H148v22.6h-9.4v-60h13.9C161.9,225.3,166.6,230.5,166.6,240.1z M148,233.9v20.3
		h4.5c3,0,4.6-1.4,4.6-5.7v-9c0-4.3-1.6-5.7-4.6-5.7H148z"/>
	<path d="M191.1,285.3c-0.5-1.5-0.9-2.5-0.9-7.4v-9.4c0-5.6-1.9-7.6-6.2-7.6h-3.3v24.4h-9.4v-60h14.2c9.8,0,14,4.5,14,13.8v4.7
		c0,6.2-2,10.2-6.2,12.2c4.7,2,6.3,6.5,6.3,12.8v9.3c0,2.9,0.1,5.1,1,7.3H191.1z M180.8,233.9v18.4h3.7c3.5,0,5.7-1.5,5.7-6.3V240
		c0-4.3-1.5-6.2-4.8-6.2H180.8z"/>
	<path d="M205.8,225.3h9.4v60h-9.4V225.3z"/>
	<path d="M230.5,241.8v43.5h-8.5v-60h11.8l9.7,35.9v-35.9h8.4v60h-9.7L230.5,241.8z"/>
	<path d="M256,225.3h29.2v8.6h-9.9v51.5h-9.4v-51.5H256V225.3z"/>
	<path d="M289.3,225.3h9.4v60h-9.4V225.3z"/>
	<path d="M314,241.8v43.5h-8.5v-60h11.8l9.7,35.9v-35.9h8.4v60h-9.7L314,241.8z"/>
	<path d="M356.4,251.9h13.2v19c0,9.6-4.8,15.1-14.1,15.1c-9.3,0-14.1-5.5-14.1-15.1v-31.2c0-9.6,4.8-15.1,14.1-15.1
		c9.3,0,14.1,5.5,14.1,15.1v5.8h-8.9v-6.4c0-4.3-1.9-5.9-4.9-5.9c-3,0-4.9,1.6-4.9,5.9v32.4c0,4.3,1.9,5.8,4.9,5.8
		c3,0,4.9-1.5,4.9-5.8v-11.1h-4.3V251.9z"/>
	<path d="M397,225.3v46.3c0,4.3,1.9,5.8,4.9,5.8c3,0,4.9-1.5,4.9-5.8v-46.3h8.9v45.7c0,9.6-4.8,15.1-14,15.1s-14-5.5-14-15.1v-45.7
		H397z"/>
	<path d="M434.8,224.6c9.2,0,13.9,5.5,13.9,15.1v1.9h-8.9v-2.5c0-4.3-1.7-5.9-4.7-5.9c-3,0-4.7,1.6-4.7,5.9
		c0,12.3,18.4,14.6,18.4,31.8c0,9.6-4.8,15.1-14,15.1s-14-5.5-14-15.1v-3.7h8.9v4.3c0,4.3,1.9,5.8,4.9,5.8s4.9-1.5,4.9-5.8
		c0-12.3-18.4-14.6-18.4-31.8C420.9,230.1,425.6,224.6,434.8,224.6z"/>
	<path d="M484.6,285.3h-9.5l-1.6-10.9h-11.6l-1.6,10.9h-8.7l9.6-60h13.8L484.6,285.3z M463.1,266.2h9.1l-4.5-30.3L463.1,266.2z"/>
</g>
</svg>
