<?xml version="1.0" encoding="utf-8"?>
<svg version="1.1" id="Logov" xmlns="http://www.w3.org/2000/svg" xmlns:xlink="http://www.w3.org/1999/xlink" x="0px" y="0px"
	 viewBox="0 0 539 287" style="enable-background:new 0 0 539 287;" xml:space="preserve">
  <style type="text/css">
    .logov_st0{fill:#D80000;}
    .logov_st1{fill:#FFFFFF;}
    .logov_st2{fill:#87020C;}
  </style>
  <g>
    <g>
      <g>
        <path d="M18.7,240.6c0-5.4-1.9-6.9-4.9-6.9s-4.9,1.6-4.9,5.9v3.9H0v-3.3c0-9.6,4.8-15.1,14.1-15.1s14.1,5.5,14.1,15.1v1.5
          c0,6.4-2.1,10.5-6.6,12.4c4.7,2.1,6.6,6.5,6.6,12.6v4.7c0,9.6-4.8,15.1-14.1,15.1S0,281.1,0,271.5v-5h8.9v5.6
          c0,4.3,1.9,5.9,4.9,5.9s4.9-1.5,4.9-6.8v-4.7c0-5.6-1.9-7.6-6.2-7.6H9.4v-8.6H13c3.5,0,5.7-1.5,5.7-6.3V240.6z"></path>
        <path d="M34.5,225.8h14.9c9.4,0,14.1,5.2,14.1,14.8V271c0,9.6-4.6,14.8-14.1,14.8H34.5V225.8z M43.9,234.4v42.9h5.3
          c3,0,4.8-1.5,4.8-5.8v-31.2c0-4.3-1.8-5.8-4.8-5.8H43.9z"></path>
        <path d="M110.7,240.7v7.8c0,9.6-4.6,14.8-14.1,14.8h-4.5v22.6h-9.4v-60h13.9C106.1,225.8,110.7,231,110.7,240.7z M92.2,234.4
          v20.3h4.5c3,0,4.6-1.4,4.6-5.7v-9c0-4.3-1.6-5.7-4.6-5.7H92.2z"></path>
        <path d="M135.3,285.9c-0.5-1.5-0.9-2.5-0.9-7.4v-9.4c0-5.6-1.9-7.6-6.2-7.6H125v24.4h-9.4v-60h14.2c9.8,0,14,4.5,14,13.8v4.7
          c0,6.2-2,10.2-6.2,12.2c4.7,2,6.3,6.5,6.3,12.8v9.3c0,2.9,0.1,5.1,1,7.3H135.3z M125,234.4v18.4h3.7c3.5,0,5.7-1.5,5.7-6.3v-5.9
          c0-4.3-1.5-6.2-4.8-6.2H125z"></path>
        <path d="M150,225.8h9.4v60H150V225.8z"></path>
        <path d="M174.7,242.4v43.5h-8.5v-60h11.8l9.7,35.9v-35.9h8.4v60h-9.7L174.7,242.4z"></path>
        <path d="M200.2,225.8h29.2v8.6h-9.9v51.5h-9.4v-51.5h-9.9V225.8z"></path>
        <path d="M233.5,225.8h9.4v60h-9.4V225.8z"></path>
        <path d="M258.2,242.4v43.5h-8.5v-60h11.8l9.7,35.9v-35.9h8.4v60H270L258.2,242.4z"></path>
        <path d="M300.6,252.4h13.2v19c0,9.6-4.8,15.1-14.1,15.1c-9.3,0-14.1-5.5-14.1-15.1v-31.2c0-9.6,4.8-15.1,14.1-15.1
          c9.3,0,14.1,5.5,14.1,15.1v5.8h-8.9v-6.4c0-4.3-1.9-5.9-4.9-5.9c-3,0-4.9,1.6-4.9,5.9v32.4c0,4.3,1.9,5.8,4.9,5.8
          c3,0,4.9-1.5,4.9-5.8V261h-4.3V252.4z"></path>
        <path d="M360.5,263.5v8c0,9.6-4.8,15.1-14.1,15.1c-9.3,0-14.1-5.5-14.1-15.1v-31.2c0-9.6,4.8-15.1,14.1-15.1
          c9.3,0,14.1,5.5,14.1,15.1v5.8h-8.9v-6.4c0-4.3-1.9-5.9-4.9-5.9c-3,0-4.9,1.6-4.9,5.9v32.4c0,4.3,1.9,5.8,4.9,5.8
          c3,0,4.9-1.5,4.9-5.8v-8.6H360.5z"></path>
        <path d="M396.8,285.9h-9.5l-1.6-10.9h-11.6l-1.6,10.9h-8.7l9.6-60h13.8L396.8,285.9z M375.3,266.8h9.1l-4.5-30.4L375.3,266.8z"></path>
        <path d="M409.6,242.4v43.5h-8.5v-60H413l9.7,35.9v-35.9h8.4v60h-9.7L409.6,242.4z"></path>
        <path d="M468.4,285.9h-9.5l-1.6-10.9h-11.6l-1.6,10.9h-8.7l9.6-60h13.8L468.4,285.9z M446.8,266.8h9.1l-4.5-30.4L446.8,266.8z"></path>
        <path d="M472.7,225.8h14.9c9.4,0,14.1,5.2,14.1,14.8V271c0,9.6-4.6,14.8-14.1,14.8h-14.9V225.8z M482.2,234.4v42.9h5.3
          c3,0,4.8-1.5,4.8-5.8v-31.2c0-4.3-1.8-5.8-4.8-5.8H482.2z"></path>
        <path d="M538.2,285.9h-9.5L527,275h-11.6l-1.6,10.9h-8.7l9.6-60h13.8L538.2,285.9z M516.7,266.8h9.1l-4.5-30.4L516.7,266.8z"></path>
      </g>
    </g>
    <g>
      <rect x="178.8" y="13.3" class="logov_st0" width="180.6" height="179.1"></rect>
      <g>
        <path class="logov_st1" d="M253.7,7.1c4.8-3.9,9.2-5.1,15.4-5.3c6.5-0.3,10.4,1.1,15.5,4.9c1.7,1.3,3.8,2.7,5.3,4.3
          c17.2,17.1,34.4,34.7,51.6,51.8c4.1,4.1,6.4,7.9,7.8,13.6c0.4,1.8,0.4,5.6,0.4,7.4c0.1,5.5-0.3,9.3-0.5,14.8
          c-0.1,5.7-1.5,8.6-4.9,13c-1.4,1.9-2.3,2.9-4,4.6c-6.1,6.2-9.3,8.7-15.5,14.8c-0.1-0.6-1,2-1,1.4c0-3.4,0.1-4.5,0.3-7.9
          c0.1-1.7-1.2-3.8-2.4-5c-29.9-29.9-58.9-59.1-88.8-89c-0.5-0.5,0,0-0.5-0.5l-0.5-0.5c6.4-6.4,11.8-12.5,18.2-18.9
          C251.2,9.3,252.5,8.2,253.7,7.1z M323,95.7c0.4-0.4,1.9-0.4,2.3-0.7c5.5-5.5-2.7,2.7,2.8-2.8c1.2-1.2,1.6-2.5,2.5-4
          c2.1-3.8,3.9-2.8,2.5-6.6c-1.4-4.6-4.9-7.3-8.3-10.6c-16.7-16.7-26.3-27.7-43.1-44.4c-1.6-1.6-3.1-3.3-4.9-4.7
          c-5.2-3.9-4.7-4.3-7.4-4c-3.2,0.4-4.5-0.1-6.9,2.2c-5.8,5.6,1.2-1.2-4.5,4.5c0,0-2.6,2.3-2.6,2.3c-0.5,0.5,0.3,2.6,0.8,3.1
          L323,95.7z"></path>
        <path d="M252.1,6.6c4.8-3.9,10.1-6.3,16.4-6.6c6.5-0.3,12.2,1.8,17.3,5.7c1.7,1.3,3.3,2.8,4.9,4.4c17.2,17.1,34.3,34.3,51.4,51.4
          c4.1,4.1,7.3,8.7,8.6,14.4c0.4,1.8,0.7,3.6,0.8,5.4c0.1,5.5,0.1,11,0,16.6c-0.1,5.7-2.4,10.6-5.8,15c-1.4,1.9-3.1,3.6-4.7,5.2
          c-5.2,5.2-10.6,10.5-15.9,15.6c-0.9,0.9-2.3,2.4-2.8,2.4c0,0-0.1-0.5-0.1-0.7c-0.1-0.3-0.3-0.5-0.3-1c0-3.4,0.2-6.4,0.2-10.2
          c0.1-1.7-0.3-2.7-1.5-3.9c-29.9-29.9-59.8-59.8-89.7-89.7c-0.5-0.5-1-1-1.5-1.4l0,0c6.4-6.4,12.8-12.8,19.2-19.2
          C249.7,9,250.9,7.8,252.1,6.6z M322.1,117.1c0.4-0.4,0.8-0.7,1.1-1c5.5-5.5,11-11,16.5-16.5c1.2-1.2,2.4-2.5,3.4-3.9
          c4.4-6.2,6-13,3.7-20.4c-1.4-4.6-4.2-8.4-7.5-11.8C322.5,46.7,305.7,30,289,13.2c-1.6-1.6-3.3-3.2-5.1-4.6
          c-5.2-3.9-11-5.7-17.5-4.7c-5.5,0.8-10.2,3.5-14.1,7.4c-5.7,5.7-11.4,11.4-17.1,17.1c-0.3,0.3-0.5,0.5-0.9,0.9
          C263.6,58.6,292.7,87.7,322.1,117.1z"></path>
        <path class="logov_st1" d="M279.3,101.5c-4.1-4-8.8-7.1-14.4-8.4c-1.9-0.4-3.8-0.6-5.8-0.9c0-0.1-0.1-0.3-0.1-0.5
          c-0.3-6.9-2.8-12.9-7.5-17.9c-4.9-5.2-10-10.3-15.2-15.4c-1.4-1.4-3-2.7-4.7-3.8c-5.9-4.1-12.4-6-19.6-4.7
          c-9.9,1.8-15.2,8.5-20.2,16.8c-2.9,4.8-4.4,9.5-4,15c0.1,0.7,1.1,1.3,1.1,1.7c1,5.6,3.1,9,6.9,13.1c3.7,3.9,7,7,10.7,10.8
          c4.1-4.1,8.9-8.3,12.4-11.8c-2.8-2.9-9.6-11-12.5-13.8c-5-5,5.2-13,7.8-13c2-0.4,4.8,1,6.2,2c0.7,0.5,2.1,1.3,2.8,1.9
          c5.1,5.1,9.5,9.9,14.6,15c0.7,0.7,1.8,2.4,2.4,3.3c1.9,2.9,1.3,7-1.3,9.8c-2.2,2.3-4.3,3.3-5.8,5.6l-1.3,0.4
          c3,4.2,9.4,7.6,13.7,11.8c0.7,0.7,0.9,2.3,0.9,3.2c0,3.7,0.2,4.5,0.2,8.2c0,0.6-0.3,1.4-0.2,2c2.1-2,2.4-2.5,4.5-4.5
          c1.3-1.3,2.5-1.5,4.3-1.9c0.2-0.7-0.1-1.4-0.1-2.1c0.1-3.5,0-6.8,0-10.3c0-0.6,0-1.7,0-2.5c1.9-0.3,5.1,0.1,6.5,1.1
          c0.4,0.3,1.7,1.7,2.1,2.1c5.6,5.6,10.7,10.6,16.3,16.2c0.7,0.7,1.8,2,2.3,2.9c1.4,2.6,0.2,6.5-1.7,8.7c-1.1,1.2-3,2.5-4.7,2.7
          c-2.9,1-6.3,0.5-8.5-1.6c-3.7-3.6-6.6-6.9-10.3-10.5c-0.4-0.4-0.8-0.8-1.3-1.3c-0.5,0.4-11.7,13.1-11.9,13.4
          c2.6,2.5,4,4.6,6.6,7.1c3.1,3.1,6,5.7,9.8,8c5,3,8.9,4,14.7,3.4c0.2,0,2.6-0.1,2.9-0.1c0.4,1.2,0.5,10.4,0.2,13.6
          c0.3,0.1,3.7-0.1,6.4-1.6c3.6-2.1,7.5-4.5,10.2-7.7c4.1-4.8,7.1-10,7.3-16.4c0.1-4.8,0-9.7,0.1-14.5c0.1-7.4-2.5-13.9-7.5-19.3
          C289.5,111.7,284.4,106.6,279.3,101.5z"></path>
        <path d="M279.3,101.5c-4.1-4-8.8-7.1-14.4-8.4c-1.9-0.4-3.8-0.6-5.8-0.9c0-0.1-0.1-0.3-0.1-0.5c-0.3-6.9-2.8-12.9-7.5-17.9
          c-4.9-5.2-10-10.3-15.2-15.4c-1.4-1.4-3-2.7-4.7-3.8c-5.9-4.1-12.4-6-19.6-4.7c-9.9,1.8-16.7,7.9-21.7,16.2
          c-2.9,4.8-3.7,10.1-3.3,15.6c0.1,0.7,0.1,1,0.2,1.4c1,5.6,3.7,10.1,7.6,14.2c3.7,3.9,7.4,7.7,11.2,11.5c0.9,0.9,1.3,1.8,1.2,3
          c-0.1,4.1-0.5,12.4-0.1,12.4c0.4,0,1-0.5,1.3-0.9c3.7-3.6,7.6-7.5,11.7-11.6c1.8-1.8,1.7-2.1,1.7-3.8c0-5.6,0-5.9,0-12.1
          c0-0.5,0-0.9-0.5-1.4c-4.3-4.3-10.4-10.5-9.1-9.1c0.5-0.5,1.3-1.2,2.7-1.2c-0.1-2.1-0.1-2.9-0.1-4.3c0-3.3,0-6.5-0.1-9.9
          c2-0.4,3.5,0.3,4.9,1.3c0.7,0.5,1.3,1.1,1.9,1.8c5.1,5.1,10.2,10.1,15.2,15.2c0.7,0.7,1.5,1.5,2,2.3c1.9,2.9,2,6.4-0.6,9.1
          c-2.4,2.4-4.6,4.2-7.3,6.8c0,0,7.8,8.4,12.9,13.3c0.7,0.7,0.7,0.7,0.7,1.7c0,3.7-0.2,7.5-0.2,11.2c0,0.7,0,1.5,0,1.5
          c0.1,0,0.5,0.3,0.5,0.3c0.5-0.3,0.9-0.8,1.3-1.2c1.7-1.7,2.8-2.8,4.3-4.3c1.3-1.3,3.5-2.8,5.3-3.2c0.3-0.6,0.5-1.1,0.5-2.9
          c0.1-3.5,0-6.2,0-9.7c0-0.6,0-1.2,0.1-2c1.9-0.3,3.4,0.3,4.8,1.3c0.4,0.3,0.8,0.7,1.2,1c5.6,5.6,11.1,11.1,16.7,16.7
          c0.7,0.7,1.3,1.5,1.8,2.3c1.4,2.6,1,5.5-0.9,7.7c-1.1,1.2-1.9,2.1-3.8,2.7c-2.9,1-5.5,0.5-7.6-1.7c-3.7-3.6-7.3-7.2-10.9-10.8
          c-0.4-0.4-0.9-0.9-1.4-1.4c-2.7,2.7-13.5,13.5-14.8,14.8c1.4,1.4,5.1,5.2,7.7,7.7c3.1,3.1,6.2,6.2,10,8.4c5,3,10.5,4.4,16.3,3.7
          c0.2,0,0.7,0,0.7,0c0.1,5.4-0.7,11.1-1,14.3c0.1,0,0.4,0,1,0c1.9-0.3,5.9-1.3,8.7-2.8c3.9-2.1,7.5-5,10.2-8.2
          c4.1-4.8,6.7-10.3,6.8-16.8c0.1-4.8,0-9.7,0.1-14.5c0.1-7.4-2.5-13.9-7.5-19.3C289.5,111.7,284.4,106.6,279.3,101.5z
            M291.6,119.1c5.9,6.5,8,14.2,5.3,22.7c-2,6.3-6.2,11.1-11.6,14.8c-8.8,5.9-19.2,5.2-27-0.9c-2.3-1.8-4.4-4-6.6-6
          c-1.8-1.7-3.1-3.1-5.3-5.3c3.3-3.3,6.4-6.4,9.7-9.7c1.1,1.1,1.1,1.1,1.6,1.6c3.1,3,6,6,9.2,8.8c3.9,3.4,9.5,3.2,13.4-0.1
          c2.5-2.1,4.3-4.6,4.6-8c0.3-2.7-0.5-5-2-7.1c-0.8-1.1-1.8-2.1-2.7-3.1c-4.9-4.9-9.8-9.8-14.7-14.7c-1.6-1.5-3.2-3-5.3-3.7
          c-3.8-1.3-6.9-0.9-9.9,1.6c-1.8,1.5-3.8,3.8-4.9,4.9c-3-3-5.8-5.8-8.8-8.8c0,0,2.3-2.3,3.6-3.6c1.9-2,3.2-4.1,3.5-6.9
          c0.3-2.8-0.6-5.3-2.4-7.5c-1.1-1.3-2.3-2.6-3.5-3.8c-4.6-4.6-9.2-9.2-13.8-13.8c-1.9-1.9-4-3.5-6.7-4c-4-0.8-7.3,0.7-10,3.5
          c-4.5,4.6-4.6,10.5-0.6,14.9c2.7,3,5.6,5.8,8.4,8.7c0.5,0.5,1.6,1.6,1.6,1.6c-3.2,3.2-6.4,6.4-9.6,9.6c0,0-0.6-0.5-0.9-0.8
          c-3.1-3.1-6.3-6.1-9.2-9.4c-7.7-8.7-8.4-20.1-1.6-29.5c3.4-4.7,7.6-8.4,13-10.4c7.6-2.9,14.8-1.7,21.5,2.9c1.3,0.9,2.6,2,3.7,3.1
          c5.3,5.2,10.7,10.4,15.7,15.8c4.6,5,6.8,11.1,6,18.1c-0.1,0.5-0.1,1-0.1,1.6c1.5-0.1,2.9-0.2,4.3-0.2c5,0,9.5,1.6,13.5,4.6
          c1.3,1,2.6,2.1,3.8,3.2C281.6,109,286.8,113.9,291.6,119.1z"></path>
        <path d="M252.8,28.2c0.2-0.3,0.5-0.6,0.7-0.9c2.3-2.3,4.5-4.6,6.8-6.8c1.8-1.8,3.9-3.1,6.4-3.6c3.3-0.6,6.2,0.5,8.8,2.6
          c0.5,0.4,0.9,0.9,1.4,1.3c17.9,17.9,35.8,35.8,53.6,53.6c1.9,1.9,3.4,4.1,3.9,6.8c0.6,3.4-0.4,6.3-2.7,8.8
          c-2.7,3-5.7,5.7-8.6,8.6C299.8,75.1,276.3,51.7,252.8,28.2z M322.9,93.5c0.3-0.1,0.6-0.1,0.8-0.3c1.9-1.9,3.8-3.7,5.6-5.6
          c2.2-2.4,2.4-5.5,0.8-8.3c-0.6-1-1.4-1.9-2.3-2.8c-17.6-17.6-35.2-35.2-52.8-52.8c-0.5-0.5-1-1-1.5-1.4c-1.6-1.2-3.3-2-5.1-1.8
          c-0.1,5-0.2,9.7-0.2,14.5c-0.9,0.3-1.8,0.6-2.9,1c0.6,0.6,1,1,1.4,1.4c18.3,18.3,36.7,36.7,55,55
          C322.1,92.8,322.5,93.2,322.9,93.5z"></path>
        <g>
          <path class="logov_st2" d="M229.3,29.3c0.5,0.5,1,1,1.5,1.4c29.9,29.9,59.8,59.8,89.7,89.7c1.2,1.2,1.7,2.4,1.7,4.1c0,4,0,6.8,0,10.2
            c0,0.6,0.1,0.8,0.1,1.4c-0.5,0-2-1.5-4.5-4c-9-8.6-29.1-29-40.4-40.2c-15.6-15.6-31.1-31.1-46.7-46.6c-1.1-1.1-1.6-2.2-1.6-3.8
            c0.1-3.5,0-7,0-10.5C229.1,30.5,229.2,29.9,229.3,29.3z"></path>
          <path class="logov_st2" d="M241.3,144.4c2.6,2.5,5.1,5.2,7.7,7.7c3.1,3.1,6.2,6.2,10,8.4c5,3,10.5,4.4,16.3,3.7c0.2,0,0.5,0,0.7,0
            c0,3.5,0,7.3,0,14.3c-6.1,1.1-11.4-0.4-16.7-3.3c-3.2-1.7-5.8-4.1-8.4-6.6c-3.7-3.7-5.3-5.3-9.1-9.1c-0.8-0.8-0.7-1.1-0.7-2.3
            c0.1-3.7,0.1-7.4,0.1-11.2C241.2,145.6,241.3,144.9,241.3,144.4z"></path>
          <path class="logov_st2" d="M214.9,84.4c-0.1-1.4-0.1-2.9-0.1-4.3c0-3.3,0-6.5-0.1-9.9c2-0.4,3.5,0.3,4.9,1.3c0.7,0.5,1.3,1.1,1.9,1.8
            c5.1,5.1,10.2,10.1,15.2,15.2c0.7,0.7,1.6,1.7,2.2,2.5c1.9,2.9,1.8,6.6-1,9.1c-2.1,1.9-2.3,2.2-2.3,2.2
            c-0.5-0.6-1.2-1.5-1.6-1.9c-4.3-4.3-8.7-8.6-12.9-13C219.4,85.8,217.4,84.6,214.9,84.4z"></path>
          <path class="logov_st2" d="M255.7,126.2c0.4-0.6,0.5-1.4,0.5-2.1c0.1-3.5,0-7,0-10.5c0-0.6,0-1.2,0.1-2c1.9-0.3,3.4,0.3,4.8,1.3
            c0.4,0.3,0.8,0.7,1.2,1c5.6,5.6,11.1,11.1,16.7,16.7c0.7,0.7,1.3,1.5,1.8,2.3c1.4,2.6,1,5.5-0.9,7.7c-1.1,1.2-2,2.1-3.8,2.7
            c0.2-0.3,0.2-0.7,0.1-0.9c-0.2-0.3-0.5-0.6-0.8-0.9c-4.3-4.3-8.6-8.6-12.9-12.9c-0.8-0.8-1.7-1.5-2.7-2.1
            C258.4,126,257.2,126,255.7,126.2z"></path>
          <path class="logov_st2" d="M187,81.9c0.1,0.4,0.2,0.8,0.3,1.2c1,5.6,3.6,10.3,7.5,14.4c3.7,3.9,7.4,7.7,11.2,11.5
            c0.9,0.9,1.3,1.8,1.2,3c-0.1,4.1-0.1,8.3-0.1,12.4c-0.5-0.2-0.8-0.4-1.5-1.1c-3.8-3.8-7.7-7.6-11.3-11.6
            c-4.6-5-7.4-10.9-7.5-17.9c-0.1-3.6,0.1-7.1,0.1-10.8C186.9,82.7,186.9,82.3,187,81.9z"></path>
          <path class="logov_st2" d="M231,106.9c4.3,4.2,8.8,8.4,13.1,12.6c0.7,0.7,0.8,1.3,0.8,2.2c0,5.3,0,7.6,0,11.3c0,0.6,0.1,1.9,0,1.9
            c-0.4-0.1-0.9-0.4-1.2-0.7c-4-4-8-8-12-11.9c-0.5-0.5-0.9-1.1-0.9-1.9C230.8,116,230.9,107.1,231,106.9z"></path>
          <path class="logov_st2" d="M268.2,34.9c0.1-4.8,0.2-9.5,0.2-14.5c1.8-0.2,3.5,0.6,5.1,1.8c0.5,0.4,1,0.9,1.5,1.4
            c17.6,17.6,35.2,35.2,52.8,52.8c0.8,0.8,1.7,1.8,2.3,2.8c1.6,2.8,1.3,5.9-0.8,8.3c-1.8,2-2.4,2.5-2.4,2.5c-0.7-0.7-1.5-1.5-2-2
            C308.2,71.6,291.6,55,275,38.4c-0.4-0.4-0.7-0.8-1.1-1.1C272.2,35.9,270.5,34.7,268.2,34.9z"></path>
          <path class="logov_st2" d="M239,91.1c1.9,2.9,1.4,6.7-1.2,9.4c-2.2,2.3-2.2,1.8-2.2,1.8"></path>
        </g>
      </g>
    </g>
  </g>
  </svg>	
